<svg id="visual" viewBox="0 0 900 600" width="900" height="600" xmlns="http://www.w3.org/2000/svg" xmlns:xlink="http://www.w3.org/1999/xlink" version="1.1"><rect x="0" y="0" width="900" height="600" fill="#FFEEDA"></rect><path d="M0 184L30 179C60 174 120 164 180 163.5C240 163 300 172 360 180.3C420 188.7 480 196.3 540 193C600 189.7 660 175.3 720 167C780 158.7 840 156.3 870 155.2L900 154L900 0L870 0C840 0 780 0 720 0C660 0 600 0 540 0C480 0 420 0 360 0C300 0 240 0 180 0C120 0 60 0 30 0L0 0Z" fill="#FFF5EB" stroke-linecap="round" stroke-linejoin="miter"></path></svg>