<svg id="visual" viewBox="0 0 900 600" width="900" height="600" xmlns="http://www.w3.org/2000/svg" xmlns:xlink="http://www.w3.org/1999/xlink" version="1.1"><g stroke-width="1" stroke-linejoin="bevel"><path d="M469 324L484 408L573 329Z" fill="#ffe7cc" stroke="#ffe7cc"></path><path d="M484 408L629 425L573 329Z" fill="#ffe1be" stroke="#ffe1be"></path><path d="M484 408L580 476L629 425Z" fill="#ffe3c3" stroke="#ffe3c3"></path><path d="M573 329L499 219L469 324Z" fill="#ffe5c8" stroke="#ffe5c8"></path><path d="M378 299L374 390L469 324Z" fill="#ffe1be" stroke="#ffe1be"></path><path d="M469 324L374 390L484 408Z" fill="#ffead1" stroke="#ffead1"></path><path d="M484 408L534 538L580 476Z" fill="#ffe5c8" stroke="#ffe5c8"></path><path d="M388 234L378 299L469 324Z" fill="#ffe3c3" stroke="#ffe3c3"></path><path d="M663 264L591 216L573 329Z" fill="#ffdab1" stroke="#ffdab1"></path><path d="M573 329L591 216L499 219Z" fill="#ffdfba" stroke="#ffdfba"></path><path d="M629 425L663 264L573 329Z" fill="#ffecd5" stroke="#ffecd5"></path><path d="M409 501L534 538L484 408Z" fill="#ffe3c3" stroke="#ffe3c3"></path><path d="M673 529L721 396L629 425Z" fill="#ffe1be" stroke="#ffe1be"></path><path d="M374 390L409 501L484 408Z" fill="#ffead1" stroke="#ffead1"></path><path d="M499 219L388 234L469 324Z" fill="#ffdcb5" stroke="#ffdcb5"></path><path d="M673 529L629 425L580 476Z" fill="#ffdab1" stroke="#ffdab1"></path><path d="M629 425L721 396L663 264Z" fill="#ffe1be" stroke="#ffe1be"></path><path d="M272 204L307 331L378 299Z" fill="#ffe7cc" stroke="#ffe7cc"></path><path d="M378 299L307 331L374 390Z" fill="#ffe7cc" stroke="#ffe7cc"></path><path d="M374 390L273 484L409 501Z" fill="#ffdfba" stroke="#ffdfba"></path><path d="M630 600L673 529L580 476Z" fill="#ffe5c8" stroke="#ffe5c8"></path><path d="M307 331L285 409L374 390Z" fill="#ffecd5" stroke="#ffecd5"></path><path d="M376 600L475 600L409 501Z" fill="#ffeeda" stroke="#ffeeda"></path><path d="M409 501L475 600L534 538Z" fill="#ffe7cc" stroke="#ffe7cc"></path><path d="M534 538L630 600L580 476Z" fill="#ffdfba" stroke="#ffdfba"></path><path d="M673 529L763 433L721 396Z" fill="#ffead1" stroke="#ffead1"></path><path d="M773 281L704 180L663 264Z" fill="#ffe3c3" stroke="#ffe3c3"></path><path d="M773 281L663 264L721 396Z" fill="#ffecd5" stroke="#ffecd5"></path><path d="M663 264L704 180L591 216Z" fill="#ffead1" stroke="#ffead1"></path><path d="M591 216L570 87L499 219Z" fill="#ffeeda" stroke="#ffeeda"></path><path d="M499 219L419 72L388 234Z" fill="#ffecd5" stroke="#ffecd5"></path><path d="M763 433L773 281L721 396Z" fill="#ffead1" stroke="#ffead1"></path><path d="M475 600L630 600L534 538Z" fill="#ffdab1" stroke="#ffdab1"></path><path d="M673 529L815 489L763 433Z" fill="#ffecd5" stroke="#ffecd5"></path><path d="M704 180L570 87L591 216Z" fill="#ffdab1" stroke="#ffdab1"></path><path d="M285 409L273 484L374 390Z" fill="#ffdfba" stroke="#ffdfba"></path><path d="M273 484L376 600L409 501Z" fill="#ffdab1" stroke="#ffdab1"></path><path d="M388 234L272 204L378 299Z" fill="#ffecd5" stroke="#ffecd5"></path><path d="M202 296L225 438L285 409Z" fill="#ffdcb5" stroke="#ffdcb5"></path><path d="M285 409L225 438L273 484Z" fill="#ffdfba" stroke="#ffdfba"></path><path d="M419 72L272 204L388 234Z" fill="#ffe7cc" stroke="#ffe7cc"></path><path d="M570 87L462 72L499 219Z" fill="#ffe1be" stroke="#ffe1be"></path><path d="M773 281L779 203L704 180Z" fill="#ffe5c8" stroke="#ffe5c8"></path><path d="M704 180L707 65L570 87Z" fill="#ffdcb5" stroke="#ffdcb5"></path><path d="M900 313L779 203L773 281Z" fill="#ffdfba" stroke="#ffdfba"></path><path d="M462 72L419 72L499 219Z" fill="#ffecd5" stroke="#ffecd5"></path><path d="M202 296L285 409L307 331Z" fill="#ffd8ac" stroke="#ffd8ac"></path><path d="M273 484L267 600L376 600Z" fill="#ffdcb5" stroke="#ffdcb5"></path><path d="M630 600L725 600L673 529Z" fill="#ffdfba" stroke="#ffdfba"></path><path d="M725 600L815 489L673 529Z" fill="#ffe5c8" stroke="#ffe5c8"></path><path d="M763 433L900 313L773 281Z" fill="#ffe3c3" stroke="#ffe3c3"></path><path d="M272 204L202 296L307 331Z" fill="#ffd8ac" stroke="#ffd8ac"></path><path d="M779 203L707 65L704 180Z" fill="#ffd8ac" stroke="#ffd8ac"></path><path d="M570 87L474 0L462 72Z" fill="#ffeeda" stroke="#ffeeda"></path><path d="M462 72L474 0L419 72Z" fill="#ffdfba" stroke="#ffdfba"></path><path d="M173 600L267 600L273 484Z" fill="#ffe7cc" stroke="#ffe7cc"></path><path d="M725 600L785 600L815 489Z" fill="#ffead1" stroke="#ffead1"></path><path d="M588 0L474 0L570 87Z" fill="#ffe1be" stroke="#ffe1be"></path><path d="M227 103L181 199L272 204Z" fill="#ffe7cc" stroke="#ffe7cc"></path><path d="M707 65L588 0L570 87Z" fill="#ffe5c8" stroke="#ffe5c8"></path><path d="M128 291L172 470L225 438Z" fill="#ffeeda" stroke="#ffeeda"></path><path d="M225 438L172 470L273 484Z" fill="#ffe3c3" stroke="#ffe3c3"></path><path d="M272 204L181 199L202 296Z" fill="#ffdcb5" stroke="#ffdcb5"></path><path d="M202 296L128 291L225 438Z" fill="#ffe3c3" stroke="#ffe3c3"></path><path d="M266 83L272 204L419 72Z" fill="#ffdcb5" stroke="#ffdcb5"></path><path d="M390 0L266 83L419 72Z" fill="#ffe7cc" stroke="#ffe7cc"></path><path d="M474 0L390 0L419 72Z" fill="#ffecd5" stroke="#ffecd5"></path><path d="M900 418L763 433L815 489Z" fill="#ffdfba" stroke="#ffdfba"></path><path d="M900 418L900 313L763 433Z" fill="#ffdcb5" stroke="#ffdcb5"></path><path d="M835 0L692 0L707 65Z" fill="#ffecd5" stroke="#ffecd5"></path><path d="M900 506L900 418L815 489Z" fill="#ffe5c8" stroke="#ffe5c8"></path><path d="M192 0L227 103L266 83Z" fill="#ffead1" stroke="#ffead1"></path><path d="M266 83L227 103L272 204Z" fill="#ffdcb5" stroke="#ffdcb5"></path><path d="M137 221L202 296L181 199Z" fill="#ffe1be" stroke="#ffe1be"></path><path d="M137 221L128 291L202 296Z" fill="#ffdab1" stroke="#ffdab1"></path><path d="M707 65L692 0L588 0Z" fill="#ffe1be" stroke="#ffe1be"></path><path d="M832 67L707 65L779 203Z" fill="#ffdab1" stroke="#ffdab1"></path><path d="M60 387L137 477L172 470Z" fill="#ffe5c8" stroke="#ffe5c8"></path><path d="M172 470L173 600L273 484Z" fill="#ffd8ac" stroke="#ffd8ac"></path><path d="M124 70L137 221L181 199Z" fill="#ffe7cc" stroke="#ffe7cc"></path><path d="M900 600L900 506L815 489Z" fill="#ffdfba" stroke="#ffdfba"></path><path d="M900 313L900 179L779 203Z" fill="#ffd8ac" stroke="#ffd8ac"></path><path d="M137 477L173 600L172 470Z" fill="#ffead1" stroke="#ffead1"></path><path d="M900 179L832 67L779 203Z" fill="#ffd8ac" stroke="#ffd8ac"></path><path d="M390 0L282 0L266 83Z" fill="#ffecd5" stroke="#ffecd5"></path><path d="M227 103L124 70L181 199Z" fill="#ffeeda" stroke="#ffeeda"></path><path d="M785 600L900 600L815 489Z" fill="#ffe3c3" stroke="#ffe3c3"></path><path d="M128 291L60 387L172 470Z" fill="#ffe1be" stroke="#ffe1be"></path><path d="M137 477L86 600L173 600Z" fill="#ffdfba" stroke="#ffdfba"></path><path d="M0 361L60 387L0 288Z" fill="#ffe5c8" stroke="#ffe5c8"></path><path d="M900 179L900 98L832 67Z" fill="#ffe3c3" stroke="#ffe3c3"></path><path d="M832 67L835 0L707 65Z" fill="#ffe1be" stroke="#ffe1be"></path><path d="M900 0L835 0L832 67Z" fill="#ffe1be" stroke="#ffe1be"></path><path d="M282 0L192 0L266 83Z" fill="#ffeeda" stroke="#ffeeda"></path><path d="M0 288L60 387L128 291Z" fill="#ffeeda" stroke="#ffeeda"></path><path d="M192 0L124 70L227 103Z" fill="#ffe1be" stroke="#ffe1be"></path><path d="M0 481L86 600L137 477Z" fill="#ffe3c3" stroke="#ffe3c3"></path><path d="M0 288L128 291L137 221Z" fill="#ffe5c8" stroke="#ffe5c8"></path><path d="M60 387L0 481L137 477Z" fill="#ffe3c3" stroke="#ffe3c3"></path><path d="M900 98L900 0L832 67Z" fill="#ffe7cc" stroke="#ffe7cc"></path><path d="M0 197L0 288L137 221Z" fill="#ffead1" stroke="#ffead1"></path><path d="M192 0L131 0L124 70Z" fill="#ffe5c8" stroke="#ffe5c8"></path><path d="M0 136L0 197L137 221Z" fill="#ffe1be" stroke="#ffe1be"></path><path d="M0 361L0 481L60 387Z" fill="#ffecd5" stroke="#ffecd5"></path><path d="M0 136L137 221L124 70Z" fill="#ffead1" stroke="#ffead1"></path><path d="M0 0L0 136L124 70Z" fill="#ffe3c3" stroke="#ffe3c3"></path><path d="M0 481L0 600L86 600Z" fill="#ffe3c3" stroke="#ffe3c3"></path><path d="M131 0L0 0L124 70Z" fill="#ffdcb5" stroke="#ffdcb5"></path></g></svg>